%FSLAX45Y45*%
G04 Gerber Fmt 4.5, Leading zero omitted, Abs format (unit mm)*
G04 Created by KiCad (PCBNEW (5.1.6)-1) date 2022-09-21 14:30:58*
%MOMM*%
%LPD*%
G01*
G04 APERTURE LIST*
%TA.AperFunction,Profile*%
%ADD10C,0.050000*%
%TD*%
%ADD11C,0.200000*%
%ADD12C,0.300000*%
G04 APERTURE END LIST*
D10*
X12400000Y-10280000D02*
X12400000Y-10300000D01*
X13460000Y-10280000D02*
X13460000Y-10300000D01*
X14150000Y-9920000D02*
X14150000Y-7800000D01*
X13970000Y-7620000D02*
G75*
G02*
X14150000Y-7800000I0J-180000D01*
G01*
X11880000Y-7620000D02*
X13970000Y-7620000D01*
X11700000Y-7800000D02*
G75*
G02*
X11880000Y-7620000I180000J0D01*
G01*
X11700000Y-9920000D02*
X11700000Y-7800000D01*
X12220000Y-10100000D02*
X11880000Y-10100000D01*
X11880000Y-10100000D02*
G75*
G02*
X11700000Y-9920000I0J180000D01*
G01*
X13640000Y-10100000D02*
X13970000Y-10100000D01*
X14150000Y-9920000D02*
G75*
G02*
X13970000Y-10100000I-180000J0D01*
G01*
X12220000Y-10100000D02*
G75*
G02*
X12400000Y-10280000I0J-180000D01*
G01*
X13460000Y-10280000D02*
G75*
G02*
X13640000Y-10100000I180000J0D01*
G01*
X12400000Y-10300000D02*
X13460000Y-10300000D01*
D11*
D12*
X11983928Y-10768214D02*
X11983928Y-10468214D01*
X12055357Y-10468214D01*
X12098214Y-10482500D01*
X12126786Y-10511072D01*
X12141071Y-10539643D01*
X12155357Y-10596786D01*
X12155357Y-10639643D01*
X12141071Y-10696786D01*
X12126786Y-10725357D01*
X12098214Y-10753929D01*
X12055357Y-10768214D01*
X11983928Y-10768214D01*
X12283928Y-10768214D02*
X12283928Y-10568214D01*
X12283928Y-10625357D02*
X12298214Y-10596786D01*
X12312500Y-10582500D01*
X12341071Y-10568214D01*
X12369643Y-10568214D01*
X12469643Y-10768214D02*
X12469643Y-10568214D01*
X12469643Y-10468214D02*
X12455357Y-10482500D01*
X12469643Y-10496786D01*
X12483928Y-10482500D01*
X12469643Y-10468214D01*
X12469643Y-10496786D01*
X12655357Y-10768214D02*
X12626786Y-10753929D01*
X12612500Y-10725357D01*
X12612500Y-10468214D01*
X12812500Y-10768214D02*
X12783928Y-10753929D01*
X12769643Y-10725357D01*
X12769643Y-10468214D01*
X13155357Y-10768214D02*
X13155357Y-10468214D01*
X13255357Y-10682500D01*
X13355357Y-10468214D01*
X13355357Y-10768214D01*
X13626786Y-10768214D02*
X13626786Y-10611072D01*
X13612500Y-10582500D01*
X13583928Y-10568214D01*
X13526786Y-10568214D01*
X13498214Y-10582500D01*
X13626786Y-10753929D02*
X13598214Y-10768214D01*
X13526786Y-10768214D01*
X13498214Y-10753929D01*
X13483928Y-10725357D01*
X13483928Y-10696786D01*
X13498214Y-10668214D01*
X13526786Y-10653929D01*
X13598214Y-10653929D01*
X13626786Y-10639643D01*
X13769643Y-10568214D02*
X13769643Y-10868214D01*
X13769643Y-10582500D02*
X13798214Y-10568214D01*
X13855357Y-10568214D01*
X13883928Y-10582500D01*
X13898214Y-10596786D01*
X13912500Y-10625357D01*
X13912500Y-10711072D01*
X13898214Y-10739643D01*
X13883928Y-10753929D01*
X13855357Y-10768214D01*
X13798214Y-10768214D01*
X13769643Y-10753929D01*
X14041071Y-10739643D02*
X14055357Y-10753929D01*
X14041071Y-10768214D01*
X14026786Y-10753929D01*
X14041071Y-10739643D01*
X14041071Y-10768214D01*
X14041071Y-10582500D02*
X14055357Y-10596786D01*
X14041071Y-10611072D01*
X14026786Y-10596786D01*
X14041071Y-10582500D01*
X14041071Y-10611072D01*
M02*
