%FSLAX45Y45*%
G04 Gerber Fmt 4.5, Leading zero omitted, Abs format (unit mm)*
G04 Created by KiCad (PCBNEW (5.1.6)-1) date 2022-09-21 14:30:58*
%MOMM*%
%LPD*%
G01*
G04 APERTURE LIST*
%TA.AperFunction,Profile*%
%ADD10C,0.050000*%
%TD*%
%ADD11C,0.200000*%
%ADD12C,0.300000*%
G04 APERTURE END LIST*
D10*
X12400000Y-10280000D02*
X12400000Y-10300000D01*
X13460000Y-10280000D02*
X13460000Y-10300000D01*
X14150000Y-9920000D02*
X14150000Y-7800000D01*
X13970000Y-7620000D02*
G75*
G02*
X14150000Y-7800000I0J-180000D01*
G01*
X11880000Y-7620000D02*
X13970000Y-7620000D01*
X11700000Y-7800000D02*
G75*
G02*
X11880000Y-7620000I180000J0D01*
G01*
X11700000Y-9920000D02*
X11700000Y-7800000D01*
X12220000Y-10100000D02*
X11880000Y-10100000D01*
X11880000Y-10100000D02*
G75*
G02*
X11700000Y-9920000I0J180000D01*
G01*
X13640000Y-10100000D02*
X13970000Y-10100000D01*
X14150000Y-9920000D02*
G75*
G02*
X13970000Y-10100000I-180000J0D01*
G01*
X12220000Y-10100000D02*
G75*
G02*
X12400000Y-10280000I0J-180000D01*
G01*
X13460000Y-10280000D02*
G75*
G02*
X13640000Y-10100000I180000J0D01*
G01*
X12400000Y-10300000D02*
X13460000Y-10300000D01*
D11*
X12095000Y-9520001D02*
X12135000Y-9560001D01*
X12135000Y-9520001D02*
X12095000Y-9560001D01*
X12600000Y-9840000D02*
X12640000Y-9880000D01*
X12640000Y-9840000D02*
X12600000Y-9880000D01*
X12600000Y-10180000D02*
G75*
G03*
X12600000Y-10180000I-50000J0D01*
G01*
X12854000Y-10180000D02*
G75*
G03*
X12854000Y-10180000I-50000J0D01*
G01*
X13108000Y-10180000D02*
G75*
G03*
X13108000Y-10180000I-50000J0D01*
G01*
X13362000Y-10180000D02*
G75*
G03*
X13362000Y-10180000I-50000J0D01*
G01*
D12*
X11983928Y-10768214D02*
X11983928Y-10468214D01*
X12055357Y-10468214D01*
X12098214Y-10482500D01*
X12126786Y-10511072D01*
X12141071Y-10539643D01*
X12155357Y-10596786D01*
X12155357Y-10639643D01*
X12141071Y-10696786D01*
X12126786Y-10725357D01*
X12098214Y-10753929D01*
X12055357Y-10768214D01*
X11983928Y-10768214D01*
X12283928Y-10768214D02*
X12283928Y-10568214D01*
X12283928Y-10625357D02*
X12298214Y-10596786D01*
X12312500Y-10582500D01*
X12341071Y-10568214D01*
X12369643Y-10568214D01*
X12469643Y-10768214D02*
X12469643Y-10568214D01*
X12469643Y-10468214D02*
X12455357Y-10482500D01*
X12469643Y-10496786D01*
X12483928Y-10482500D01*
X12469643Y-10468214D01*
X12469643Y-10496786D01*
X12655357Y-10768214D02*
X12626786Y-10753929D01*
X12612500Y-10725357D01*
X12612500Y-10468214D01*
X12812500Y-10768214D02*
X12783928Y-10753929D01*
X12769643Y-10725357D01*
X12769643Y-10468214D01*
X13155357Y-10768214D02*
X13155357Y-10468214D01*
X13255357Y-10682500D01*
X13355357Y-10468214D01*
X13355357Y-10768214D01*
X13626786Y-10768214D02*
X13626786Y-10611072D01*
X13612500Y-10582500D01*
X13583928Y-10568214D01*
X13526786Y-10568214D01*
X13498214Y-10582500D01*
X13626786Y-10753929D02*
X13598214Y-10768214D01*
X13526786Y-10768214D01*
X13498214Y-10753929D01*
X13483928Y-10725357D01*
X13483928Y-10696786D01*
X13498214Y-10668214D01*
X13526786Y-10653929D01*
X13598214Y-10653929D01*
X13626786Y-10639643D01*
X13769643Y-10568214D02*
X13769643Y-10868214D01*
X13769643Y-10582500D02*
X13798214Y-10568214D01*
X13855357Y-10568214D01*
X13883928Y-10582500D01*
X13898214Y-10596786D01*
X13912500Y-10625357D01*
X13912500Y-10711072D01*
X13898214Y-10739643D01*
X13883928Y-10753929D01*
X13855357Y-10768214D01*
X13798214Y-10768214D01*
X13769643Y-10753929D01*
X14041071Y-10739643D02*
X14055357Y-10753929D01*
X14041071Y-10768214D01*
X14026786Y-10753929D01*
X14041071Y-10739643D01*
X14041071Y-10768214D01*
X14041071Y-10582500D02*
X14055357Y-10596786D01*
X14041071Y-10611072D01*
X14026786Y-10596786D01*
X14041071Y-10582500D01*
X14041071Y-10611072D01*
X11657500Y-11242500D02*
X11697500Y-11282500D01*
X11697500Y-11242500D02*
X11657500Y-11282500D01*
X12041071Y-11098214D02*
X12069643Y-11098214D01*
X12098214Y-11112500D01*
X12112500Y-11126786D01*
X12126786Y-11155357D01*
X12141071Y-11212500D01*
X12141071Y-11283929D01*
X12126786Y-11341071D01*
X12112500Y-11369643D01*
X12098214Y-11383929D01*
X12069643Y-11398214D01*
X12041071Y-11398214D01*
X12012500Y-11383929D01*
X11998214Y-11369643D01*
X11983928Y-11341071D01*
X11969643Y-11283929D01*
X11969643Y-11212500D01*
X11983928Y-11155357D01*
X11998214Y-11126786D01*
X12012500Y-11112500D01*
X12041071Y-11098214D01*
X12269643Y-11369643D02*
X12283928Y-11383929D01*
X12269643Y-11398214D01*
X12255357Y-11383929D01*
X12269643Y-11369643D01*
X12269643Y-11398214D01*
X12541071Y-11198214D02*
X12541071Y-11398214D01*
X12469643Y-11083929D02*
X12398214Y-11298214D01*
X12583928Y-11298214D01*
X12755357Y-11098214D02*
X12783928Y-11098214D01*
X12812500Y-11112500D01*
X12826786Y-11126786D01*
X12841071Y-11155357D01*
X12855357Y-11212500D01*
X12855357Y-11283929D01*
X12841071Y-11341071D01*
X12826786Y-11369643D01*
X12812500Y-11383929D01*
X12783928Y-11398214D01*
X12755357Y-11398214D01*
X12726786Y-11383929D01*
X12712500Y-11369643D01*
X12698214Y-11341071D01*
X12683928Y-11283929D01*
X12683928Y-11212500D01*
X12698214Y-11155357D01*
X12712500Y-11126786D01*
X12726786Y-11112500D01*
X12755357Y-11098214D01*
X12983928Y-11398214D02*
X12983928Y-11198214D01*
X12983928Y-11226786D02*
X12998214Y-11212500D01*
X13026786Y-11198214D01*
X13069643Y-11198214D01*
X13098214Y-11212500D01*
X13112500Y-11241071D01*
X13112500Y-11398214D01*
X13112500Y-11241071D02*
X13126786Y-11212500D01*
X13155357Y-11198214D01*
X13198214Y-11198214D01*
X13226786Y-11212500D01*
X13241071Y-11241071D01*
X13241071Y-11398214D01*
X13383928Y-11398214D02*
X13383928Y-11198214D01*
X13383928Y-11226786D02*
X13398214Y-11212500D01*
X13426786Y-11198214D01*
X13469643Y-11198214D01*
X13498214Y-11212500D01*
X13512500Y-11241071D01*
X13512500Y-11398214D01*
X13512500Y-11241071D02*
X13526786Y-11212500D01*
X13555357Y-11198214D01*
X13598214Y-11198214D01*
X13626786Y-11212500D01*
X13641071Y-11241071D01*
X13641071Y-11398214D01*
X14226786Y-11083929D02*
X13969643Y-11469643D01*
X14612500Y-11098214D02*
X14641071Y-11098214D01*
X14669643Y-11112500D01*
X14683928Y-11126786D01*
X14698214Y-11155357D01*
X14712500Y-11212500D01*
X14712500Y-11283929D01*
X14698214Y-11341071D01*
X14683928Y-11369643D01*
X14669643Y-11383929D01*
X14641071Y-11398214D01*
X14612500Y-11398214D01*
X14583928Y-11383929D01*
X14569643Y-11369643D01*
X14555357Y-11341071D01*
X14541071Y-11283929D01*
X14541071Y-11212500D01*
X14555357Y-11155357D01*
X14569643Y-11126786D01*
X14583928Y-11112500D01*
X14612500Y-11098214D01*
X14841071Y-11369643D02*
X14855357Y-11383929D01*
X14841071Y-11398214D01*
X14826786Y-11383929D01*
X14841071Y-11369643D01*
X14841071Y-11398214D01*
X15041071Y-11098214D02*
X15069643Y-11098214D01*
X15098214Y-11112500D01*
X15112500Y-11126786D01*
X15126786Y-11155357D01*
X15141071Y-11212500D01*
X15141071Y-11283929D01*
X15126786Y-11341071D01*
X15112500Y-11369643D01*
X15098214Y-11383929D01*
X15069643Y-11398214D01*
X15041071Y-11398214D01*
X15012500Y-11383929D01*
X14998214Y-11369643D01*
X14983928Y-11341071D01*
X14969643Y-11283929D01*
X14969643Y-11212500D01*
X14983928Y-11155357D01*
X14998214Y-11126786D01*
X15012500Y-11112500D01*
X15041071Y-11098214D01*
X15426786Y-11398214D02*
X15255357Y-11398214D01*
X15341071Y-11398214D02*
X15341071Y-11098214D01*
X15312500Y-11141072D01*
X15283928Y-11169643D01*
X15255357Y-11183929D01*
X15683928Y-11098214D02*
X15626786Y-11098214D01*
X15598214Y-11112500D01*
X15583928Y-11126786D01*
X15555357Y-11169643D01*
X15541071Y-11226786D01*
X15541071Y-11341071D01*
X15555357Y-11369643D01*
X15569643Y-11383929D01*
X15598214Y-11398214D01*
X15655357Y-11398214D01*
X15683928Y-11383929D01*
X15698214Y-11369643D01*
X15712500Y-11341071D01*
X15712500Y-11269643D01*
X15698214Y-11241071D01*
X15683928Y-11226786D01*
X15655357Y-11212500D01*
X15598214Y-11212500D01*
X15569643Y-11226786D01*
X15555357Y-11241071D01*
X15541071Y-11269643D01*
X15826786Y-11098214D02*
X15826786Y-11155357D01*
X15941071Y-11098214D02*
X15941071Y-11155357D01*
X16383928Y-11512500D02*
X16369643Y-11498214D01*
X16341071Y-11455357D01*
X16326786Y-11426786D01*
X16312500Y-11383929D01*
X16298214Y-11312500D01*
X16298214Y-11255357D01*
X16312500Y-11183929D01*
X16326786Y-11141072D01*
X16341071Y-11112500D01*
X16369643Y-11069643D01*
X16383928Y-11055357D01*
X16483928Y-11126786D02*
X16498214Y-11112500D01*
X16526786Y-11098214D01*
X16598214Y-11098214D01*
X16626786Y-11112500D01*
X16641071Y-11126786D01*
X16655357Y-11155357D01*
X16655357Y-11183929D01*
X16641071Y-11226786D01*
X16469643Y-11398214D01*
X16655357Y-11398214D01*
X17012500Y-11398214D02*
X17012500Y-11098214D01*
X17141071Y-11398214D02*
X17141071Y-11241071D01*
X17126786Y-11212500D01*
X17098214Y-11198214D01*
X17055357Y-11198214D01*
X17026786Y-11212500D01*
X17012500Y-11226786D01*
X17326786Y-11398214D02*
X17298214Y-11383929D01*
X17283928Y-11369643D01*
X17269643Y-11341071D01*
X17269643Y-11255357D01*
X17283928Y-11226786D01*
X17298214Y-11212500D01*
X17326786Y-11198214D01*
X17369643Y-11198214D01*
X17398214Y-11212500D01*
X17412500Y-11226786D01*
X17426786Y-11255357D01*
X17426786Y-11341071D01*
X17412500Y-11369643D01*
X17398214Y-11383929D01*
X17369643Y-11398214D01*
X17326786Y-11398214D01*
X17598214Y-11398214D02*
X17569643Y-11383929D01*
X17555357Y-11355357D01*
X17555357Y-11098214D01*
X17826786Y-11383929D02*
X17798214Y-11398214D01*
X17741071Y-11398214D01*
X17712500Y-11383929D01*
X17698214Y-11355357D01*
X17698214Y-11241071D01*
X17712500Y-11212500D01*
X17741071Y-11198214D01*
X17798214Y-11198214D01*
X17826786Y-11212500D01*
X17841071Y-11241071D01*
X17841071Y-11269643D01*
X17698214Y-11298214D01*
X17955357Y-11383929D02*
X17983928Y-11398214D01*
X18041071Y-11398214D01*
X18069643Y-11383929D01*
X18083928Y-11355357D01*
X18083928Y-11341071D01*
X18069643Y-11312500D01*
X18041071Y-11298214D01*
X17998214Y-11298214D01*
X17969643Y-11283929D01*
X17955357Y-11255357D01*
X17955357Y-11241071D01*
X17969643Y-11212500D01*
X17998214Y-11198214D01*
X18041071Y-11198214D01*
X18069643Y-11212500D01*
X18183928Y-11512500D02*
X18198214Y-11498214D01*
X18226786Y-11455357D01*
X18241071Y-11426786D01*
X18255357Y-11383929D01*
X18269643Y-11312500D01*
X18269643Y-11255357D01*
X18255357Y-11183929D01*
X18241071Y-11141072D01*
X18226786Y-11112500D01*
X18198214Y-11069643D01*
X18183928Y-11055357D01*
X11697500Y-11658500D02*
G75*
G03*
X11697500Y-11658500I-50000J0D01*
G01*
X12141071Y-11794214D02*
X11969643Y-11794214D01*
X12055357Y-11794214D02*
X12055357Y-11494214D01*
X12026786Y-11537071D01*
X11998214Y-11565643D01*
X11969643Y-11579929D01*
X12269643Y-11765643D02*
X12283928Y-11779929D01*
X12269643Y-11794214D01*
X12255357Y-11779929D01*
X12269643Y-11765643D01*
X12269643Y-11794214D01*
X12469643Y-11494214D02*
X12498214Y-11494214D01*
X12526786Y-11508500D01*
X12541071Y-11522786D01*
X12555357Y-11551357D01*
X12569643Y-11608500D01*
X12569643Y-11679929D01*
X12555357Y-11737071D01*
X12541071Y-11765643D01*
X12526786Y-11779929D01*
X12498214Y-11794214D01*
X12469643Y-11794214D01*
X12441071Y-11779929D01*
X12426786Y-11765643D01*
X12412500Y-11737071D01*
X12398214Y-11679929D01*
X12398214Y-11608500D01*
X12412500Y-11551357D01*
X12426786Y-11522786D01*
X12441071Y-11508500D01*
X12469643Y-11494214D01*
X12755357Y-11494214D02*
X12783928Y-11494214D01*
X12812500Y-11508500D01*
X12826786Y-11522786D01*
X12841071Y-11551357D01*
X12855357Y-11608500D01*
X12855357Y-11679929D01*
X12841071Y-11737071D01*
X12826786Y-11765643D01*
X12812500Y-11779929D01*
X12783928Y-11794214D01*
X12755357Y-11794214D01*
X12726786Y-11779929D01*
X12712500Y-11765643D01*
X12698214Y-11737071D01*
X12683928Y-11679929D01*
X12683928Y-11608500D01*
X12698214Y-11551357D01*
X12712500Y-11522786D01*
X12726786Y-11508500D01*
X12755357Y-11494214D01*
X12983928Y-11794214D02*
X12983928Y-11594214D01*
X12983928Y-11622786D02*
X12998214Y-11608500D01*
X13026786Y-11594214D01*
X13069643Y-11594214D01*
X13098214Y-11608500D01*
X13112500Y-11637071D01*
X13112500Y-11794214D01*
X13112500Y-11637071D02*
X13126786Y-11608500D01*
X13155357Y-11594214D01*
X13198214Y-11594214D01*
X13226786Y-11608500D01*
X13241071Y-11637071D01*
X13241071Y-11794214D01*
X13383928Y-11794214D02*
X13383928Y-11594214D01*
X13383928Y-11622786D02*
X13398214Y-11608500D01*
X13426786Y-11594214D01*
X13469643Y-11594214D01*
X13498214Y-11608500D01*
X13512500Y-11637071D01*
X13512500Y-11794214D01*
X13512500Y-11637071D02*
X13526786Y-11608500D01*
X13555357Y-11594214D01*
X13598214Y-11594214D01*
X13626786Y-11608500D01*
X13641071Y-11637071D01*
X13641071Y-11794214D01*
X14226786Y-11479929D02*
X13969643Y-11865643D01*
X14612500Y-11494214D02*
X14641071Y-11494214D01*
X14669643Y-11508500D01*
X14683928Y-11522786D01*
X14698214Y-11551357D01*
X14712500Y-11608500D01*
X14712500Y-11679929D01*
X14698214Y-11737071D01*
X14683928Y-11765643D01*
X14669643Y-11779929D01*
X14641071Y-11794214D01*
X14612500Y-11794214D01*
X14583928Y-11779929D01*
X14569643Y-11765643D01*
X14555357Y-11737071D01*
X14541071Y-11679929D01*
X14541071Y-11608500D01*
X14555357Y-11551357D01*
X14569643Y-11522786D01*
X14583928Y-11508500D01*
X14612500Y-11494214D01*
X14841071Y-11765643D02*
X14855357Y-11779929D01*
X14841071Y-11794214D01*
X14826786Y-11779929D01*
X14841071Y-11765643D01*
X14841071Y-11794214D01*
X15041071Y-11494214D02*
X15069643Y-11494214D01*
X15098214Y-11508500D01*
X15112500Y-11522786D01*
X15126786Y-11551357D01*
X15141071Y-11608500D01*
X15141071Y-11679929D01*
X15126786Y-11737071D01*
X15112500Y-11765643D01*
X15098214Y-11779929D01*
X15069643Y-11794214D01*
X15041071Y-11794214D01*
X15012500Y-11779929D01*
X14998214Y-11765643D01*
X14983928Y-11737071D01*
X14969643Y-11679929D01*
X14969643Y-11608500D01*
X14983928Y-11551357D01*
X14998214Y-11522786D01*
X15012500Y-11508500D01*
X15041071Y-11494214D01*
X15241071Y-11494214D02*
X15426786Y-11494214D01*
X15326786Y-11608500D01*
X15369643Y-11608500D01*
X15398214Y-11622786D01*
X15412500Y-11637071D01*
X15426786Y-11665643D01*
X15426786Y-11737071D01*
X15412500Y-11765643D01*
X15398214Y-11779929D01*
X15369643Y-11794214D01*
X15283928Y-11794214D01*
X15255357Y-11779929D01*
X15241071Y-11765643D01*
X15569643Y-11794214D02*
X15626786Y-11794214D01*
X15655357Y-11779929D01*
X15669643Y-11765643D01*
X15698214Y-11722786D01*
X15712500Y-11665643D01*
X15712500Y-11551357D01*
X15698214Y-11522786D01*
X15683928Y-11508500D01*
X15655357Y-11494214D01*
X15598214Y-11494214D01*
X15569643Y-11508500D01*
X15555357Y-11522786D01*
X15541071Y-11551357D01*
X15541071Y-11622786D01*
X15555357Y-11651357D01*
X15569643Y-11665643D01*
X15598214Y-11679929D01*
X15655357Y-11679929D01*
X15683928Y-11665643D01*
X15698214Y-11651357D01*
X15712500Y-11622786D01*
X15826786Y-11494214D02*
X15826786Y-11551357D01*
X15941071Y-11494214D02*
X15941071Y-11551357D01*
X16383928Y-11908500D02*
X16369643Y-11894214D01*
X16341071Y-11851357D01*
X16326786Y-11822786D01*
X16312500Y-11779929D01*
X16298214Y-11708500D01*
X16298214Y-11651357D01*
X16312500Y-11579929D01*
X16326786Y-11537071D01*
X16341071Y-11508500D01*
X16369643Y-11465643D01*
X16383928Y-11451357D01*
X16626786Y-11594214D02*
X16626786Y-11794214D01*
X16555357Y-11479929D02*
X16483928Y-11694214D01*
X16669643Y-11694214D01*
X17012500Y-11794214D02*
X17012500Y-11494214D01*
X17141071Y-11794214D02*
X17141071Y-11637071D01*
X17126786Y-11608500D01*
X17098214Y-11594214D01*
X17055357Y-11594214D01*
X17026786Y-11608500D01*
X17012500Y-11622786D01*
X17326786Y-11794214D02*
X17298214Y-11779929D01*
X17283928Y-11765643D01*
X17269643Y-11737071D01*
X17269643Y-11651357D01*
X17283928Y-11622786D01*
X17298214Y-11608500D01*
X17326786Y-11594214D01*
X17369643Y-11594214D01*
X17398214Y-11608500D01*
X17412500Y-11622786D01*
X17426786Y-11651357D01*
X17426786Y-11737071D01*
X17412500Y-11765643D01*
X17398214Y-11779929D01*
X17369643Y-11794214D01*
X17326786Y-11794214D01*
X17598214Y-11794214D02*
X17569643Y-11779929D01*
X17555357Y-11751357D01*
X17555357Y-11494214D01*
X17826786Y-11779929D02*
X17798214Y-11794214D01*
X17741071Y-11794214D01*
X17712500Y-11779929D01*
X17698214Y-11751357D01*
X17698214Y-11637071D01*
X17712500Y-11608500D01*
X17741071Y-11594214D01*
X17798214Y-11594214D01*
X17826786Y-11608500D01*
X17841071Y-11637071D01*
X17841071Y-11665643D01*
X17698214Y-11694214D01*
X17955357Y-11779929D02*
X17983928Y-11794214D01*
X18041071Y-11794214D01*
X18069643Y-11779929D01*
X18083928Y-11751357D01*
X18083928Y-11737071D01*
X18069643Y-11708500D01*
X18041071Y-11694214D01*
X17998214Y-11694214D01*
X17969643Y-11679929D01*
X17955357Y-11651357D01*
X17955357Y-11637071D01*
X17969643Y-11608500D01*
X17998214Y-11594214D01*
X18041071Y-11594214D01*
X18069643Y-11608500D01*
X18183928Y-11908500D02*
X18198214Y-11894214D01*
X18226786Y-11851357D01*
X18241071Y-11822786D01*
X18255357Y-11779929D01*
X18269643Y-11708500D01*
X18269643Y-11651357D01*
X18255357Y-11579929D01*
X18241071Y-11537071D01*
X18226786Y-11508500D01*
X18198214Y-11465643D01*
X18183928Y-11451357D01*
M02*
