%TF.GenerationSoftware,KiCad,Pcbnew,(5.1.6)-1*%
%TF.CreationDate,2022-09-21T14:30:55-04:00*%
%TF.ProjectId,EXT_BATT_4.5,4558545f-4241-4545-945f-342e352e6b69,rev?*%
%TF.SameCoordinates,Original*%
%TF.FileFunction,Copper,L2,Bot*%
%TF.FilePolarity,Positive*%
%FSLAX46Y46*%
G04 Gerber Fmt 4.6, Leading zero omitted, Abs format (unit mm)*
G04 Created by KiCad (PCBNEW (5.1.6)-1) date 2022-09-21 14:30:55*
%MOMM*%
%LPD*%
G01*
G04 APERTURE LIST*
%TA.AperFunction,SMDPad,CuDef*%
%ADD10R,3.500000X2.600000*%
%TD*%
%TA.AperFunction,ComponentPad*%
%ADD11R,1.700000X1.700000*%
%TD*%
%TA.AperFunction,ComponentPad*%
%ADD12O,1.700000X1.700000*%
%TD*%
%TA.AperFunction,ViaPad*%
%ADD13C,0.800000*%
%TD*%
%TA.AperFunction,Conductor*%
%ADD14C,0.500000*%
%TD*%
%TA.AperFunction,Conductor*%
%ADD15C,0.254000*%
%TD*%
G04 APERTURE END LIST*
D10*
%TO.P,BT2,2*%
%TO.N,Net-(BT2-Pad2)*%
X123100000Y-77950000D03*
%TO.P,BT2,1*%
%TO.N,Net-(BT1-Pad2)*%
X123100000Y-98650000D03*
%TD*%
%TO.P,BT3,1*%
%TO.N,Net-(BT2-Pad2)*%
X135400000Y-77950000D03*
%TO.P,BT3,2*%
%TO.N,GND*%
X135400000Y-98650000D03*
%TD*%
D11*
%TO.P,J1,1*%
%TO.N,VDD*%
X125500000Y-101800000D03*
D12*
%TO.P,J1,2*%
%TO.N,Net-(J1-Pad2)*%
X128040000Y-101800000D03*
%TO.P,J1,3*%
%TO.N,Net-(J1-Pad3)*%
X130580000Y-101800000D03*
%TO.P,J1,4*%
%TO.N,GND*%
X133120000Y-101800000D03*
%TD*%
D13*
%TO.N,Net-(BT1-Pad2)*%
X126200000Y-98600000D03*
%TO.N,GND*%
X121149998Y-95400012D03*
%TD*%
D14*
%TO.N,Net-(BT1-Pad2)*%
X123100000Y-98650000D02*
X126150000Y-98650000D01*
X126150000Y-98650000D02*
X126200000Y-98600000D01*
%TO.N,Net-(BT2-Pad2)*%
X135400000Y-77950000D02*
X123100000Y-77950000D01*
%TD*%
D15*
%TO.N,GND*%
G36*
X120920934Y-79250000D02*
G01*
X120929178Y-79333707D01*
X120953595Y-79414196D01*
X120993245Y-79488376D01*
X121046605Y-79553395D01*
X121111624Y-79606755D01*
X121185804Y-79646405D01*
X121266293Y-79670822D01*
X121350000Y-79679066D01*
X124850000Y-79679066D01*
X124933707Y-79670822D01*
X125014196Y-79646405D01*
X125088376Y-79606755D01*
X125153395Y-79553395D01*
X125206755Y-79488376D01*
X125246405Y-79414196D01*
X125270822Y-79333707D01*
X125279066Y-79250000D01*
X125279066Y-78627000D01*
X133220934Y-78627000D01*
X133220934Y-79250000D01*
X133229178Y-79333707D01*
X133253595Y-79414196D01*
X133293245Y-79488376D01*
X133346605Y-79553395D01*
X133411624Y-79606755D01*
X133485804Y-79646405D01*
X133566293Y-79670822D01*
X133650000Y-79679066D01*
X137150000Y-79679066D01*
X137233707Y-79670822D01*
X137314196Y-79646405D01*
X137388376Y-79606755D01*
X137453395Y-79553395D01*
X137506755Y-79488376D01*
X137546405Y-79414196D01*
X137570822Y-79333707D01*
X137579066Y-79250000D01*
X137579066Y-76652000D01*
X139677891Y-76652000D01*
X139961406Y-76679799D01*
X140212855Y-76755715D01*
X140444772Y-76879027D01*
X140648319Y-77045036D01*
X140815746Y-77247420D01*
X140940673Y-77478468D01*
X141018343Y-77729381D01*
X141048001Y-78011552D01*
X141048000Y-99177891D01*
X141020201Y-99461407D01*
X140944283Y-99712858D01*
X140820972Y-99944773D01*
X140654964Y-100148319D01*
X140452578Y-100315747D01*
X140221532Y-100440673D01*
X139970619Y-100518343D01*
X139688458Y-100548000D01*
X136377795Y-100548000D01*
X136357669Y-100549982D01*
X136346467Y-100549904D01*
X136340186Y-100550520D01*
X135990813Y-100587241D01*
X135950669Y-100595481D01*
X135910442Y-100603155D01*
X135904405Y-100604978D01*
X135904399Y-100604979D01*
X135904393Y-100604981D01*
X135568813Y-100708860D01*
X135531056Y-100724731D01*
X135493062Y-100740082D01*
X135487495Y-100743042D01*
X135487491Y-100743044D01*
X135487490Y-100743045D01*
X135178471Y-100910131D01*
X135144519Y-100933032D01*
X135110228Y-100955471D01*
X135105337Y-100959460D01*
X134834657Y-101183386D01*
X134805790Y-101212456D01*
X134776521Y-101241118D01*
X134772498Y-101245981D01*
X134550467Y-101518218D01*
X134527803Y-101552330D01*
X134504652Y-101586141D01*
X134501650Y-101591693D01*
X134397000Y-101788511D01*
X134397000Y-101672998D01*
X134283926Y-101672998D01*
X134355164Y-101475786D01*
X134268180Y-101241047D01*
X134137072Y-101027788D01*
X133966878Y-100844205D01*
X133764139Y-100697353D01*
X133536646Y-100592875D01*
X133444213Y-100564842D01*
X133247000Y-100636662D01*
X133247000Y-101673000D01*
X133267000Y-101673000D01*
X133267000Y-101927000D01*
X133247000Y-101927000D01*
X133247000Y-101947000D01*
X132993000Y-101947000D01*
X132993000Y-101927000D01*
X132973000Y-101927000D01*
X132973000Y-101673000D01*
X132993000Y-101673000D01*
X132993000Y-100636662D01*
X132795787Y-100564842D01*
X132703354Y-100592875D01*
X132475861Y-100697353D01*
X132273122Y-100844205D01*
X132102928Y-101027788D01*
X131971820Y-101241047D01*
X131884836Y-101475786D01*
X131956074Y-101672998D01*
X131856756Y-101672998D01*
X131807926Y-101427513D01*
X131711663Y-101195114D01*
X131571911Y-100985960D01*
X131394040Y-100808089D01*
X131184886Y-100668337D01*
X130952487Y-100572074D01*
X130705774Y-100523000D01*
X130454226Y-100523000D01*
X130207513Y-100572074D01*
X129975114Y-100668337D01*
X129765960Y-100808089D01*
X129588089Y-100985960D01*
X129448337Y-101195114D01*
X129352074Y-101427513D01*
X129310000Y-101639034D01*
X129267926Y-101427513D01*
X129171663Y-101195114D01*
X129031911Y-100985960D01*
X128854040Y-100808089D01*
X128644886Y-100668337D01*
X128412487Y-100572074D01*
X128165774Y-100523000D01*
X127914226Y-100523000D01*
X127667513Y-100572074D01*
X127435114Y-100668337D01*
X127225960Y-100808089D01*
X127048089Y-100985960D01*
X126908337Y-101195114D01*
X126812074Y-101427513D01*
X126779066Y-101593456D01*
X126779066Y-100950000D01*
X126770822Y-100866293D01*
X126746405Y-100785804D01*
X126706755Y-100711624D01*
X126653395Y-100646605D01*
X126588376Y-100593245D01*
X126514196Y-100553595D01*
X126433707Y-100529178D01*
X126350000Y-100520934D01*
X124650000Y-100520934D01*
X124566293Y-100529178D01*
X124485804Y-100553595D01*
X124411624Y-100593245D01*
X124346605Y-100646605D01*
X124293245Y-100711624D01*
X124253595Y-100785804D01*
X124229178Y-100866293D01*
X124220934Y-100950000D01*
X124220934Y-101820871D01*
X124089869Y-101578471D01*
X124066968Y-101544519D01*
X124044529Y-101510228D01*
X124040540Y-101505337D01*
X123816614Y-101234657D01*
X123787544Y-101205790D01*
X123758882Y-101176521D01*
X123754019Y-101172498D01*
X123481782Y-100950467D01*
X123447670Y-100927803D01*
X123413859Y-100904652D01*
X123408310Y-100901651D01*
X123408302Y-100901647D01*
X123098129Y-100736725D01*
X123060240Y-100721108D01*
X123022597Y-100704974D01*
X123016576Y-100703110D01*
X123016570Y-100703108D01*
X123016564Y-100703107D01*
X122680264Y-100601572D01*
X122640059Y-100593611D01*
X122600007Y-100585098D01*
X122593730Y-100584438D01*
X122244108Y-100550157D01*
X122244105Y-100550157D01*
X122222205Y-100548000D01*
X118822109Y-100548000D01*
X118538593Y-100520201D01*
X118287142Y-100444283D01*
X118055227Y-100320972D01*
X117851681Y-100154964D01*
X117684253Y-99952578D01*
X117559327Y-99721532D01*
X117481657Y-99470619D01*
X117452000Y-99188458D01*
X117452000Y-97350000D01*
X120920934Y-97350000D01*
X120920934Y-99950000D01*
X120929178Y-100033707D01*
X120953595Y-100114196D01*
X120993245Y-100188376D01*
X121046605Y-100253395D01*
X121111624Y-100306755D01*
X121185804Y-100346405D01*
X121266293Y-100370822D01*
X121350000Y-100379066D01*
X124850000Y-100379066D01*
X124933707Y-100370822D01*
X125014196Y-100346405D01*
X125088376Y-100306755D01*
X125153395Y-100253395D01*
X125206755Y-100188376D01*
X125246405Y-100114196D01*
X125270822Y-100033707D01*
X125279066Y-99950000D01*
X133220934Y-99950000D01*
X133229178Y-100033707D01*
X133253595Y-100114196D01*
X133293245Y-100188376D01*
X133346605Y-100253395D01*
X133411624Y-100306755D01*
X133485804Y-100346405D01*
X133566293Y-100370822D01*
X133650000Y-100379066D01*
X135166250Y-100377000D01*
X135273000Y-100270250D01*
X135273000Y-98777000D01*
X135527000Y-98777000D01*
X135527000Y-100270250D01*
X135633750Y-100377000D01*
X137150000Y-100379066D01*
X137233707Y-100370822D01*
X137314196Y-100346405D01*
X137388376Y-100306755D01*
X137453395Y-100253395D01*
X137506755Y-100188376D01*
X137546405Y-100114196D01*
X137570822Y-100033707D01*
X137579066Y-99950000D01*
X137577000Y-98883750D01*
X137470250Y-98777000D01*
X135527000Y-98777000D01*
X135273000Y-98777000D01*
X133329750Y-98777000D01*
X133223000Y-98883750D01*
X133220934Y-99950000D01*
X125279066Y-99950000D01*
X125279066Y-99327000D01*
X125799473Y-99327000D01*
X125808269Y-99332877D01*
X125958773Y-99395218D01*
X126118548Y-99427000D01*
X126281452Y-99427000D01*
X126441227Y-99395218D01*
X126591731Y-99332877D01*
X126727181Y-99242372D01*
X126842372Y-99127181D01*
X126932877Y-98991731D01*
X126995218Y-98841227D01*
X127027000Y-98681452D01*
X127027000Y-98518548D01*
X126995218Y-98358773D01*
X126932877Y-98208269D01*
X126842372Y-98072819D01*
X126727181Y-97957628D01*
X126591731Y-97867123D01*
X126441227Y-97804782D01*
X126281452Y-97773000D01*
X126118548Y-97773000D01*
X125958773Y-97804782D01*
X125808269Y-97867123D01*
X125672819Y-97957628D01*
X125657447Y-97973000D01*
X125279066Y-97973000D01*
X125279066Y-97350000D01*
X133220934Y-97350000D01*
X133223000Y-98416250D01*
X133329750Y-98523000D01*
X135273000Y-98523000D01*
X135273000Y-97029750D01*
X135527000Y-97029750D01*
X135527000Y-98523000D01*
X137470250Y-98523000D01*
X137577000Y-98416250D01*
X137579066Y-97350000D01*
X137570822Y-97266293D01*
X137546405Y-97185804D01*
X137506755Y-97111624D01*
X137453395Y-97046605D01*
X137388376Y-96993245D01*
X137314196Y-96953595D01*
X137233707Y-96929178D01*
X137150000Y-96920934D01*
X135633750Y-96923000D01*
X135527000Y-97029750D01*
X135273000Y-97029750D01*
X135166250Y-96923000D01*
X133650000Y-96920934D01*
X133566293Y-96929178D01*
X133485804Y-96953595D01*
X133411624Y-96993245D01*
X133346605Y-97046605D01*
X133293245Y-97111624D01*
X133253595Y-97185804D01*
X133229178Y-97266293D01*
X133220934Y-97350000D01*
X125279066Y-97350000D01*
X125270822Y-97266293D01*
X125246405Y-97185804D01*
X125206755Y-97111624D01*
X125153395Y-97046605D01*
X125088376Y-96993245D01*
X125014196Y-96953595D01*
X124933707Y-96929178D01*
X124850000Y-96920934D01*
X121350000Y-96920934D01*
X121266293Y-96929178D01*
X121185804Y-96953595D01*
X121111624Y-96993245D01*
X121046605Y-97046605D01*
X120993245Y-97111624D01*
X120953595Y-97185804D01*
X120929178Y-97266293D01*
X120920934Y-97350000D01*
X117452000Y-97350000D01*
X117452000Y-78022109D01*
X117479799Y-77738594D01*
X117555715Y-77487145D01*
X117679027Y-77255228D01*
X117845036Y-77051681D01*
X118047420Y-76884254D01*
X118278468Y-76759327D01*
X118529381Y-76681657D01*
X118811542Y-76652000D01*
X120920934Y-76652000D01*
X120920934Y-79250000D01*
G37*
X120920934Y-79250000D02*
X120929178Y-79333707D01*
X120953595Y-79414196D01*
X120993245Y-79488376D01*
X121046605Y-79553395D01*
X121111624Y-79606755D01*
X121185804Y-79646405D01*
X121266293Y-79670822D01*
X121350000Y-79679066D01*
X124850000Y-79679066D01*
X124933707Y-79670822D01*
X125014196Y-79646405D01*
X125088376Y-79606755D01*
X125153395Y-79553395D01*
X125206755Y-79488376D01*
X125246405Y-79414196D01*
X125270822Y-79333707D01*
X125279066Y-79250000D01*
X125279066Y-78627000D01*
X133220934Y-78627000D01*
X133220934Y-79250000D01*
X133229178Y-79333707D01*
X133253595Y-79414196D01*
X133293245Y-79488376D01*
X133346605Y-79553395D01*
X133411624Y-79606755D01*
X133485804Y-79646405D01*
X133566293Y-79670822D01*
X133650000Y-79679066D01*
X137150000Y-79679066D01*
X137233707Y-79670822D01*
X137314196Y-79646405D01*
X137388376Y-79606755D01*
X137453395Y-79553395D01*
X137506755Y-79488376D01*
X137546405Y-79414196D01*
X137570822Y-79333707D01*
X137579066Y-79250000D01*
X137579066Y-76652000D01*
X139677891Y-76652000D01*
X139961406Y-76679799D01*
X140212855Y-76755715D01*
X140444772Y-76879027D01*
X140648319Y-77045036D01*
X140815746Y-77247420D01*
X140940673Y-77478468D01*
X141018343Y-77729381D01*
X141048001Y-78011552D01*
X141048000Y-99177891D01*
X141020201Y-99461407D01*
X140944283Y-99712858D01*
X140820972Y-99944773D01*
X140654964Y-100148319D01*
X140452578Y-100315747D01*
X140221532Y-100440673D01*
X139970619Y-100518343D01*
X139688458Y-100548000D01*
X136377795Y-100548000D01*
X136357669Y-100549982D01*
X136346467Y-100549904D01*
X136340186Y-100550520D01*
X135990813Y-100587241D01*
X135950669Y-100595481D01*
X135910442Y-100603155D01*
X135904405Y-100604978D01*
X135904399Y-100604979D01*
X135904393Y-100604981D01*
X135568813Y-100708860D01*
X135531056Y-100724731D01*
X135493062Y-100740082D01*
X135487495Y-100743042D01*
X135487491Y-100743044D01*
X135487490Y-100743045D01*
X135178471Y-100910131D01*
X135144519Y-100933032D01*
X135110228Y-100955471D01*
X135105337Y-100959460D01*
X134834657Y-101183386D01*
X134805790Y-101212456D01*
X134776521Y-101241118D01*
X134772498Y-101245981D01*
X134550467Y-101518218D01*
X134527803Y-101552330D01*
X134504652Y-101586141D01*
X134501650Y-101591693D01*
X134397000Y-101788511D01*
X134397000Y-101672998D01*
X134283926Y-101672998D01*
X134355164Y-101475786D01*
X134268180Y-101241047D01*
X134137072Y-101027788D01*
X133966878Y-100844205D01*
X133764139Y-100697353D01*
X133536646Y-100592875D01*
X133444213Y-100564842D01*
X133247000Y-100636662D01*
X133247000Y-101673000D01*
X133267000Y-101673000D01*
X133267000Y-101927000D01*
X133247000Y-101927000D01*
X133247000Y-101947000D01*
X132993000Y-101947000D01*
X132993000Y-101927000D01*
X132973000Y-101927000D01*
X132973000Y-101673000D01*
X132993000Y-101673000D01*
X132993000Y-100636662D01*
X132795787Y-100564842D01*
X132703354Y-100592875D01*
X132475861Y-100697353D01*
X132273122Y-100844205D01*
X132102928Y-101027788D01*
X131971820Y-101241047D01*
X131884836Y-101475786D01*
X131956074Y-101672998D01*
X131856756Y-101672998D01*
X131807926Y-101427513D01*
X131711663Y-101195114D01*
X131571911Y-100985960D01*
X131394040Y-100808089D01*
X131184886Y-100668337D01*
X130952487Y-100572074D01*
X130705774Y-100523000D01*
X130454226Y-100523000D01*
X130207513Y-100572074D01*
X129975114Y-100668337D01*
X129765960Y-100808089D01*
X129588089Y-100985960D01*
X129448337Y-101195114D01*
X129352074Y-101427513D01*
X129310000Y-101639034D01*
X129267926Y-101427513D01*
X129171663Y-101195114D01*
X129031911Y-100985960D01*
X128854040Y-100808089D01*
X128644886Y-100668337D01*
X128412487Y-100572074D01*
X128165774Y-100523000D01*
X127914226Y-100523000D01*
X127667513Y-100572074D01*
X127435114Y-100668337D01*
X127225960Y-100808089D01*
X127048089Y-100985960D01*
X126908337Y-101195114D01*
X126812074Y-101427513D01*
X126779066Y-101593456D01*
X126779066Y-100950000D01*
X126770822Y-100866293D01*
X126746405Y-100785804D01*
X126706755Y-100711624D01*
X126653395Y-100646605D01*
X126588376Y-100593245D01*
X126514196Y-100553595D01*
X126433707Y-100529178D01*
X126350000Y-100520934D01*
X124650000Y-100520934D01*
X124566293Y-100529178D01*
X124485804Y-100553595D01*
X124411624Y-100593245D01*
X124346605Y-100646605D01*
X124293245Y-100711624D01*
X124253595Y-100785804D01*
X124229178Y-100866293D01*
X124220934Y-100950000D01*
X124220934Y-101820871D01*
X124089869Y-101578471D01*
X124066968Y-101544519D01*
X124044529Y-101510228D01*
X124040540Y-101505337D01*
X123816614Y-101234657D01*
X123787544Y-101205790D01*
X123758882Y-101176521D01*
X123754019Y-101172498D01*
X123481782Y-100950467D01*
X123447670Y-100927803D01*
X123413859Y-100904652D01*
X123408310Y-100901651D01*
X123408302Y-100901647D01*
X123098129Y-100736725D01*
X123060240Y-100721108D01*
X123022597Y-100704974D01*
X123016576Y-100703110D01*
X123016570Y-100703108D01*
X123016564Y-100703107D01*
X122680264Y-100601572D01*
X122640059Y-100593611D01*
X122600007Y-100585098D01*
X122593730Y-100584438D01*
X122244108Y-100550157D01*
X122244105Y-100550157D01*
X122222205Y-100548000D01*
X118822109Y-100548000D01*
X118538593Y-100520201D01*
X118287142Y-100444283D01*
X118055227Y-100320972D01*
X117851681Y-100154964D01*
X117684253Y-99952578D01*
X117559327Y-99721532D01*
X117481657Y-99470619D01*
X117452000Y-99188458D01*
X117452000Y-97350000D01*
X120920934Y-97350000D01*
X120920934Y-99950000D01*
X120929178Y-100033707D01*
X120953595Y-100114196D01*
X120993245Y-100188376D01*
X121046605Y-100253395D01*
X121111624Y-100306755D01*
X121185804Y-100346405D01*
X121266293Y-100370822D01*
X121350000Y-100379066D01*
X124850000Y-100379066D01*
X124933707Y-100370822D01*
X125014196Y-100346405D01*
X125088376Y-100306755D01*
X125153395Y-100253395D01*
X125206755Y-100188376D01*
X125246405Y-100114196D01*
X125270822Y-100033707D01*
X125279066Y-99950000D01*
X133220934Y-99950000D01*
X133229178Y-100033707D01*
X133253595Y-100114196D01*
X133293245Y-100188376D01*
X133346605Y-100253395D01*
X133411624Y-100306755D01*
X133485804Y-100346405D01*
X133566293Y-100370822D01*
X133650000Y-100379066D01*
X135166250Y-100377000D01*
X135273000Y-100270250D01*
X135273000Y-98777000D01*
X135527000Y-98777000D01*
X135527000Y-100270250D01*
X135633750Y-100377000D01*
X137150000Y-100379066D01*
X137233707Y-100370822D01*
X137314196Y-100346405D01*
X137388376Y-100306755D01*
X137453395Y-100253395D01*
X137506755Y-100188376D01*
X137546405Y-100114196D01*
X137570822Y-100033707D01*
X137579066Y-99950000D01*
X137577000Y-98883750D01*
X137470250Y-98777000D01*
X135527000Y-98777000D01*
X135273000Y-98777000D01*
X133329750Y-98777000D01*
X133223000Y-98883750D01*
X133220934Y-99950000D01*
X125279066Y-99950000D01*
X125279066Y-99327000D01*
X125799473Y-99327000D01*
X125808269Y-99332877D01*
X125958773Y-99395218D01*
X126118548Y-99427000D01*
X126281452Y-99427000D01*
X126441227Y-99395218D01*
X126591731Y-99332877D01*
X126727181Y-99242372D01*
X126842372Y-99127181D01*
X126932877Y-98991731D01*
X126995218Y-98841227D01*
X127027000Y-98681452D01*
X127027000Y-98518548D01*
X126995218Y-98358773D01*
X126932877Y-98208269D01*
X126842372Y-98072819D01*
X126727181Y-97957628D01*
X126591731Y-97867123D01*
X126441227Y-97804782D01*
X126281452Y-97773000D01*
X126118548Y-97773000D01*
X125958773Y-97804782D01*
X125808269Y-97867123D01*
X125672819Y-97957628D01*
X125657447Y-97973000D01*
X125279066Y-97973000D01*
X125279066Y-97350000D01*
X133220934Y-97350000D01*
X133223000Y-98416250D01*
X133329750Y-98523000D01*
X135273000Y-98523000D01*
X135273000Y-97029750D01*
X135527000Y-97029750D01*
X135527000Y-98523000D01*
X137470250Y-98523000D01*
X137577000Y-98416250D01*
X137579066Y-97350000D01*
X137570822Y-97266293D01*
X137546405Y-97185804D01*
X137506755Y-97111624D01*
X137453395Y-97046605D01*
X137388376Y-96993245D01*
X137314196Y-96953595D01*
X137233707Y-96929178D01*
X137150000Y-96920934D01*
X135633750Y-96923000D01*
X135527000Y-97029750D01*
X135273000Y-97029750D01*
X135166250Y-96923000D01*
X133650000Y-96920934D01*
X133566293Y-96929178D01*
X133485804Y-96953595D01*
X133411624Y-96993245D01*
X133346605Y-97046605D01*
X133293245Y-97111624D01*
X133253595Y-97185804D01*
X133229178Y-97266293D01*
X133220934Y-97350000D01*
X125279066Y-97350000D01*
X125270822Y-97266293D01*
X125246405Y-97185804D01*
X125206755Y-97111624D01*
X125153395Y-97046605D01*
X125088376Y-96993245D01*
X125014196Y-96953595D01*
X124933707Y-96929178D01*
X124850000Y-96920934D01*
X121350000Y-96920934D01*
X121266293Y-96929178D01*
X121185804Y-96953595D01*
X121111624Y-96993245D01*
X121046605Y-97046605D01*
X120993245Y-97111624D01*
X120953595Y-97185804D01*
X120929178Y-97266293D01*
X120920934Y-97350000D01*
X117452000Y-97350000D01*
X117452000Y-78022109D01*
X117479799Y-77738594D01*
X117555715Y-77487145D01*
X117679027Y-77255228D01*
X117845036Y-77051681D01*
X118047420Y-76884254D01*
X118278468Y-76759327D01*
X118529381Y-76681657D01*
X118811542Y-76652000D01*
X120920934Y-76652000D01*
X120920934Y-79250000D01*
%TD*%
M02*
